<svg width="95" height="42" viewBox="0 0 95 42" fill="none" xmlns="http://www.w3.org/2000/svg">
<rect width="35.9266" height="4.32467" rx="2.16234" transform="matrix(0.555319 -0.831637 0.738084 0.674709 0 34.0078)" fill="#EBA51F"/>
<rect width="35.9266" height="4.32467" rx="2.16234" transform="matrix(0.555319 -0.831637 0.738084 0.674709 8.5985 34.0078)" fill="#865875"/>
<rect width="35.9266" height="4.32467" rx="2.16234" transform="matrix(0.555319 -0.831637 0.738084 0.674709 16.5223 34.082)" fill="#EBA51F"/>
<rect width="35.9266" height="4.32467" rx="2.16234" transform="matrix(0.555319 -0.831637 0.738084 0.674709 0 34.0078)" fill="#8FEAE9"/>
<rect width="35.9266" height="4.32467" rx="2.16234" transform="matrix(0.555319 -0.831637 0.738084 0.674709 8.5985 34.0078)" fill="#865875"/>
<rect width="35.9266" height="4.32467" rx="2.16234" transform="matrix(0.555319 -0.831637 0.738084 0.674709 16.5223 34.082)" fill="#EBA51F"/>
<path d="M47.9014 6.96094L53.5625 22.9453L59.1934 6.96094H65.1572V29H60.6011V22.9756L61.0552 12.5767L55.1064 29H51.9883L46.0547 12.5918L46.5088 22.9756V29H41.9678V6.96094H47.9014Z" fill="#865875"/>
<path d="M69.123 29V6.96094H75.9043C77.8418 6.96094 79.5724 7.3999 81.0962 8.27783C82.63 9.14567 83.8258 10.3869 84.6836 12.0015C85.5413 13.606 85.9702 15.4325 85.9702 17.481V18.4951C85.9702 20.5436 85.5464 22.3651 84.6987 23.9595C83.8612 25.5539 82.6755 26.79 81.1416 27.668C79.6077 28.5459 77.8771 28.9899 75.9497 29H69.123ZM73.6641 10.6392V25.3521H75.8589C77.6349 25.3521 78.9922 24.7718 79.9307 23.6113C80.8691 22.4508 81.3485 20.7909 81.3687 18.6313V17.4658C81.3687 15.2256 80.9045 13.5303 79.9761 12.3799C79.0477 11.2194 77.6904 10.6392 75.9043 10.6392H73.6641Z" fill="#EBA51F"/>
</svg>
