<svg width="242" height="42" viewBox="0 0 242 42" fill="none" xmlns="http://www.w3.org/2000/svg">
<path d="M72.3721 11.7266L76.9375 24.6172L81.4785 11.7266H86.2881V29.5H82.6138V24.6416L82.98 16.2554L78.1826 29.5H75.668L70.8828 16.2676L71.249 24.6416V29.5H67.5869V11.7266H72.3721ZM88.7051 22.7739C88.7051 21.4637 88.9574 20.2959 89.4619 19.2705C89.9665 18.2451 90.6908 17.4517 91.6348 16.8901C92.5869 16.3286 93.6896 16.0479 94.9429 16.0479C96.7251 16.0479 98.1777 16.5931 99.3008 17.6836C100.432 18.7741 101.063 20.2552 101.193 22.127L101.217 23.0303C101.217 25.0566 100.652 26.6842 99.5205 27.9131C98.3893 29.1338 96.8716 29.7441 94.9673 29.7441C93.063 29.7441 91.5412 29.1338 90.4019 27.9131C89.2707 26.6924 88.7051 25.0322 88.7051 22.9326V22.7739ZM92.2329 23.0303C92.2329 24.2835 92.4689 25.2438 92.9409 25.9111C93.4129 26.5703 94.0884 26.8999 94.9673 26.8999C95.8218 26.8999 96.4891 26.5744 96.9692 25.9233C97.4494 25.2642 97.6895 24.2144 97.6895 22.7739C97.6895 21.5451 97.4494 20.5929 96.9692 19.9175C96.4891 19.242 95.8136 18.9043 94.9429 18.9043C94.0802 18.9043 93.4129 19.242 92.9409 19.9175C92.4689 20.5848 92.2329 21.6224 92.2329 23.0303ZM102.841 22.7739C102.841 21.4637 103.093 20.2959 103.598 19.2705C104.102 18.2451 104.826 17.4517 105.771 16.8901C106.723 16.3286 107.825 16.0479 109.079 16.0479C110.861 16.0479 112.313 16.5931 113.437 17.6836C114.568 18.7741 115.198 20.2552 115.329 22.127L115.353 23.0303C115.353 25.0566 114.787 26.6842 113.656 27.9131C112.525 29.1338 111.007 29.7441 109.103 29.7441C107.199 29.7441 105.677 29.1338 104.538 27.9131C103.406 26.6924 102.841 25.0322 102.841 22.9326V22.7739ZM106.369 23.0303C106.369 24.2835 106.605 25.2438 107.077 25.9111C107.549 26.5703 108.224 26.8999 109.103 26.8999C109.958 26.8999 110.625 26.5744 111.105 25.9233C111.585 25.2642 111.825 24.2144 111.825 22.7739C111.825 21.5451 111.585 20.5929 111.105 19.9175C110.625 19.242 109.949 18.9043 109.079 18.9043C108.216 18.9043 107.549 19.242 107.077 19.9175C106.605 20.5848 106.369 21.6224 106.369 23.0303ZM120.773 16.292L120.883 17.8179C121.827 16.6379 123.092 16.0479 124.679 16.0479C126.079 16.0479 127.121 16.4588 127.804 17.2808C128.488 18.1027 128.838 19.3315 128.854 20.9673V29.5H125.326V21.0527C125.326 20.304 125.163 19.7629 124.838 19.4292C124.512 19.0874 123.971 18.9165 123.214 18.9165C122.222 18.9165 121.477 19.3397 120.98 20.186V29.5H117.453V16.292H120.773ZM137.619 29.7441C135.682 29.7441 134.103 29.1501 132.882 27.9619C131.67 26.7738 131.063 25.1909 131.063 23.2134V22.8716C131.063 21.5451 131.32 20.361 131.833 19.3193C132.345 18.2695 133.069 17.4639 134.005 16.9023C134.949 16.3327 136.024 16.0479 137.228 16.0479C139.035 16.0479 140.455 16.6175 141.488 17.7568C142.53 18.8962 143.051 20.5116 143.051 22.603V24.0435H134.64C134.754 24.9061 135.096 25.5978 135.666 26.1187C136.243 26.6395 136.972 26.8999 137.851 26.8999C139.21 26.8999 140.272 26.4076 141.037 25.4229L142.77 27.3638C142.241 28.1125 141.525 28.6984 140.622 29.1216C139.718 29.5366 138.717 29.7441 137.619 29.7441ZM137.216 18.9043C136.516 18.9043 135.946 19.1403 135.507 19.6123C135.076 20.0843 134.799 20.7598 134.677 21.6387H139.584V21.3579C139.568 20.5767 139.356 19.9744 138.949 19.5513C138.542 19.12 137.965 18.9043 137.216 18.9043ZM152.487 19.6001C152.007 19.535 151.583 19.5024 151.217 19.5024C149.883 19.5024 149.008 19.9541 148.593 20.8574V29.5H145.065V16.292H148.397L148.495 17.8667C149.203 16.6541 150.184 16.0479 151.437 16.0479C151.828 16.0479 152.194 16.1007 152.536 16.2065L152.487 19.6001ZM161.349 25.8501C161.349 25.4188 161.133 25.0811 160.702 24.8369C160.279 24.5846 159.595 24.3608 158.651 24.1655C155.51 23.5063 153.939 22.1717 153.939 20.1616C153.939 18.9897 154.424 18.0132 155.392 17.2319C156.369 16.4425 157.642 16.0479 159.213 16.0479C160.889 16.0479 162.228 16.4425 163.229 17.2319C164.238 18.0213 164.743 19.0467 164.743 20.3081H161.215C161.215 19.8035 161.052 19.3885 160.727 19.063C160.401 18.7293 159.892 18.5625 159.201 18.5625C158.607 18.5625 158.147 18.6968 157.821 18.9653C157.496 19.2339 157.333 19.5757 157.333 19.9907C157.333 20.3813 157.516 20.6987 157.882 20.9429C158.257 21.1789 158.883 21.3864 159.762 21.5654C160.641 21.7363 161.382 21.9316 161.984 22.1514C163.847 22.835 164.779 24.019 164.779 25.7036C164.779 26.908 164.263 27.8846 163.229 28.6333C162.195 29.3739 160.861 29.7441 159.225 29.7441C158.118 29.7441 157.134 29.5488 156.271 29.1582C155.417 28.7594 154.745 28.2183 154.257 27.5347C153.769 26.8429 153.524 26.0983 153.524 25.3008H156.869C156.902 25.9274 157.134 26.4076 157.565 26.7412C157.996 27.0749 158.574 27.2417 159.298 27.2417C159.974 27.2417 160.482 27.1156 160.824 26.8633C161.174 26.6029 161.349 26.2651 161.349 25.8501Z" fill="#865875"/>
<path d="M167.294 29.5V11.7266H172.763C174.325 11.7266 175.721 12.0806 176.95 12.7886C178.187 13.4884 179.151 14.4894 179.843 15.7915C180.535 17.0854 180.88 18.5584 180.88 20.2104V21.0283C180.88 22.6803 180.539 24.1493 179.855 25.4351C179.18 26.7209 178.223 27.7178 176.986 28.4258C175.749 29.1338 174.354 29.4919 172.799 29.5H167.294ZM170.956 14.6929V26.5581H172.726C174.158 26.5581 175.253 26.0902 176.01 25.1543C176.767 24.2184 177.153 22.8797 177.169 21.1382V20.1982C177.169 18.3916 176.795 17.0244 176.046 16.0967C175.298 15.1608 174.203 14.6929 172.763 14.6929H170.956ZM189.401 29.7441C187.464 29.7441 185.885 29.1501 184.665 27.9619C183.452 26.7738 182.846 25.1909 182.846 23.2134V22.8716C182.846 21.5451 183.102 20.361 183.615 19.3193C184.127 18.2695 184.852 17.4639 185.788 16.9023C186.732 16.3327 187.806 16.0479 189.01 16.0479C190.817 16.0479 192.237 16.6175 193.271 17.7568C194.312 18.8962 194.833 20.5116 194.833 22.603V24.0435H186.422C186.536 24.9061 186.878 25.5978 187.448 26.1187C188.026 26.6395 188.754 26.8999 189.633 26.8999C190.992 26.8999 192.054 26.4076 192.819 25.4229L194.552 27.3638C194.023 28.1125 193.307 28.6984 192.404 29.1216C191.5 29.5366 190.5 29.7441 189.401 29.7441ZM188.998 18.9043C188.298 18.9043 187.729 19.1403 187.289 19.6123C186.858 20.0843 186.581 20.7598 186.459 21.6387H191.366V21.3579C191.35 20.5767 191.138 19.9744 190.731 19.5513C190.325 19.12 189.747 18.9043 188.998 18.9043ZM204 25.8501C204 25.4188 203.785 25.0811 203.354 24.8369C202.93 24.5846 202.247 24.3608 201.303 24.1655C198.161 23.5063 196.591 22.1717 196.591 20.1616C196.591 18.9897 197.075 18.0132 198.043 17.2319C199.02 16.4425 200.294 16.0479 201.864 16.0479C203.541 16.0479 204.879 16.4425 205.88 17.2319C206.889 18.0213 207.394 19.0467 207.394 20.3081H203.866C203.866 19.8035 203.703 19.3885 203.378 19.063C203.052 18.7293 202.544 18.5625 201.852 18.5625C201.258 18.5625 200.798 18.6968 200.473 18.9653C200.147 19.2339 199.984 19.5757 199.984 19.9907C199.984 20.3813 200.167 20.6987 200.534 20.9429C200.908 21.1789 201.535 21.3864 202.414 21.5654C203.292 21.7363 204.033 21.9316 204.635 22.1514C206.499 22.835 207.431 24.019 207.431 25.7036C207.431 26.908 206.914 27.8846 205.88 28.6333C204.847 29.3739 203.512 29.7441 201.876 29.7441C200.77 29.7441 199.785 29.5488 198.922 29.1582C198.068 28.7594 197.396 28.2183 196.908 27.5347C196.42 26.8429 196.176 26.0983 196.176 25.3008H199.521C199.553 25.9274 199.785 26.4076 200.216 26.7412C200.648 27.0749 201.225 27.2417 201.95 27.2417C202.625 27.2417 203.134 27.1156 203.476 26.8633C203.826 26.6029 204 26.2651 204 25.8501ZM213.437 29.5H209.896V16.292H213.437V29.5ZM209.689 12.874C209.689 12.3451 209.864 11.9097 210.214 11.5679C210.572 11.2261 211.056 11.0552 211.667 11.0552C212.269 11.0552 212.749 11.2261 213.107 11.5679C213.465 11.9097 213.644 12.3451 213.644 12.874C213.644 13.4111 213.461 13.8506 213.095 14.1924C212.737 14.5342 212.261 14.7051 211.667 14.7051C211.072 14.7051 210.592 14.5342 210.226 14.1924C209.868 13.8506 209.689 13.4111 209.689 12.874ZM215.841 22.7983C215.841 20.772 216.321 19.1403 217.282 17.9033C218.25 16.6663 219.552 16.0479 221.188 16.0479C222.637 16.0479 223.764 16.5443 224.569 17.5371L224.716 16.292H227.914V29.0605C227.914 30.2161 227.65 31.2212 227.121 32.0757C226.6 32.9302 225.863 33.5812 224.911 34.0288C223.959 34.4764 222.844 34.7002 221.566 34.7002C220.598 34.7002 219.654 34.5049 218.734 34.1143C217.815 33.7318 217.119 33.2354 216.647 32.625L218.209 30.4766C219.088 31.4613 220.154 31.9536 221.408 31.9536C222.344 31.9536 223.072 31.7013 223.593 31.1968C224.114 30.7004 224.374 29.9924 224.374 29.0728V28.3647C223.56 29.2843 222.49 29.7441 221.164 29.7441C219.577 29.7441 218.291 29.1257 217.306 27.8887C216.33 26.6436 215.841 24.9956 215.841 22.9448V22.7983ZM219.369 23.0547C219.369 24.251 219.609 25.1909 220.089 25.8745C220.569 26.55 221.229 26.8877 222.067 26.8877C223.141 26.8877 223.91 26.4849 224.374 25.6792V20.125C223.902 19.3193 223.141 18.9165 222.091 18.9165C221.245 18.9165 220.578 19.2624 220.089 19.9541C219.609 20.6458 219.369 21.6794 219.369 23.0547ZM233.883 16.292L233.993 17.8179C234.937 16.6379 236.203 16.0479 237.79 16.0479C239.189 16.0479 240.231 16.4588 240.915 17.2808C241.598 18.1027 241.948 19.3315 241.964 20.9673V29.5H238.437V21.0527C238.437 20.304 238.274 19.7629 237.948 19.4292C237.623 19.0874 237.082 18.9165 236.325 18.9165C235.332 18.9165 234.587 19.3397 234.091 20.186V29.5H230.563V16.292H233.883Z" fill="#EBA51F"/>
<rect width="36.0889" height="5.34305" rx="2.67152" transform="matrix(0.87805 -0.478569 0.948865 0.315682 0 29.271)" fill="#EBA51F"/>
<rect width="36.0889" height="5.34305" rx="2.67152" transform="matrix(0.87805 -0.478569 0.948865 0.315682 13.6573 29.271)" fill="#865875"/>
<rect width="36.0889" height="5.34305" rx="2.67152" transform="matrix(0.87805 -0.478569 0.948865 0.315682 26.2423 29.3132)" fill="#EBA51F"/>
<rect width="36.0889" height="5.34305" rx="2.67152" transform="matrix(0.87805 -0.478569 0.948865 0.315682 0 29.271)" fill="#8FEAE9"/>
<rect width="36.0889" height="5.34305" rx="2.67152" transform="matrix(0.87805 -0.478569 0.948865 0.315682 13.6573 29.271)" fill="#865875"/>
<rect width="36.0889" height="5.34305" rx="2.67152" transform="matrix(0.87805 -0.478569 0.948865 0.315682 26.2423 29.3132)" fill="#EBA51F"/>
</svg>
